<svg width="118" height="40" viewBox="0 0 118 40" fill="none" xmlns="http://www.w3.org/2000/svg">
<path d="M27.0953 0.0102539V7.23044C27.0953 7.58185 26.8109 7.8683 26.4587 7.8683H22.6007V0.0220661H20.4006V9.83503H27.3119C28.3552 9.83503 29.2011 8.9875 29.2011 7.94213V0.0102539H27.0953Z" fill="white"/>
<path d="M37.7302 9.83355V2.61336C37.7302 2.26195 37.4443 1.9755 37.0936 1.9755H33.2356V9.82174H31.0355V0.0102539H37.9483C38.9916 0.0102539 39.836 0.857777 39.836 1.90315V9.83503H37.7302V9.83355Z" fill="white"/>
<path d="M48.5548 0H41.8013V9.76571L44.0014 9.78786L48.5548 9.8351C49.5982 9.8351 50.444 8.98758 50.444 7.94221V1.8929C50.444 0.847523 49.5982 0 48.5548 0ZM48.3382 7.23052C48.3382 7.58193 48.0523 7.86838 47.7016 7.86838H44.0014V1.96673H47.7016C48.0538 1.96673 48.3382 2.25169 48.3382 2.60458V7.23052Z" fill="white"/>
<path d="M64.8548 0.0737305H63.3429H63.1218V9.89998H63.589H65.1024H65.3219V0.0737305H64.8548Z" fill="white"/>
<path d="M58.7474 0.168213H54.0363C52.993 0.168213 52.1471 1.01574 52.1471 2.05964V9.9915H54.2529V6.70772H58.7474V9.97969H60.9475V0.168213H58.7474V0.168213ZM58.4321 4.74247H54.2529V2.7728C54.2529 2.41991 54.5373 2.13346 54.8895 2.13346H58.7474V4.741H58.4321V4.74247Z" fill="white"/>
<path d="M8.42024 0.0473633H6.90684H6.68579V3.84498H6.28497H2.20011V0.0473633H1.73297H0.221042H0V9.87361H0.467136H1.97907H2.20011V5.8117H2.36515H6.68579V9.87361H7.15293H8.66633H8.8859V0.0473633H8.42024Z" fill="white"/>
<path d="M17.2354 0.0368652L15.7309 2.35205L14.6551 4.00575L13.5735 2.34171L12.0734 0.0368652H9.44739L13.5293 6.31356V9.9015H15.7309V6.39033L19.8614 0.0368652H17.2354Z" fill="white"/>
<path d="M56.5437 18.1228C52.0227 18.1228 48.8912 19.6731 48.8912 25.188V33.6026C48.8912 38.3925 52.3513 40.0004 56.5437 40.0004C60.9955 40.0004 63.8882 38.36 64.1977 33.6026V25.188C64.1977 20.3405 61.6866 18.1228 56.5437 18.1228V18.1228ZM57.9658 34.4192C57.8832 35.3774 57.615 36.188 56.5128 36.188C55.4105 36.188 55.1394 35.3774 55.0539 34.4192V24.2843C55.0539 23.1784 55.1512 21.8997 56.5128 21.8997C57.8744 21.8997 57.9658 23.1784 57.9658 24.2843V34.4192Z" fill="white"/>
<path d="M65.0203 18.3486V22.2422H67.1909V35.7288C67.1909 39.1056 69.0447 39.7508 72.3088 39.7508C73.6394 39.7508 74.5133 39.7508 76.1461 39.6416V35.9148C75.505 35.9148 75.3488 35.9178 74.6238 35.9178C73.831 35.9178 73.3005 35.4497 73.3005 34.3866V22.2408H76.1461V18.3472H65.0203V18.3486Z" fill="white"/>
<path d="M113.797 18.0859C111.404 18.0859 110.029 19.3174 109.413 21.1113H109.34C108.861 19.4414 107.651 18.0859 105.218 18.0859C102.972 18.0859 101.571 19.2509 100.675 21.2117H100.6V18.3709H94.7921V39.7421H100.58V24.621C100.651 23.5491 100.955 22.8758 102.11 22.8758C103.19 22.8758 103.509 23.6879 103.509 24.621V39.7421H109.284V24.621C109.284 23.586 109.739 22.8758 110.748 22.8758C111.839 22.8758 112.145 23.71 112.145 24.621V39.7421H118V22.1907C118 19.4872 116.244 18.0874 113.796 18.0874L113.797 18.0859Z" fill="white"/>
<path d="M84.7523 18.0844C80.3698 18.0991 77.1219 19.5845 77.1219 24.8852V33.7901C77.1219 38.5032 80.8045 39.9546 84.7523 39.9546C89.767 39.9546 92.3798 38.2359 92.3798 34.4191V31.3096H86.2289V33.6351C86.2289 34.8842 86.0683 36.1083 84.7803 36.1083C83.5661 36.1083 83.348 34.7956 83.348 33.6469V29.6884H92.3916V24.0466C92.3916 19.5978 88.9345 18.0667 84.7523 18.0844V18.0844ZM86.2333 26.1536H83.3391V24.7125C83.3391 23.2729 83.1859 21.947 84.7906 21.947C86.2598 21.947 86.2333 23.3629 86.2333 24.0953V26.1521V26.1536Z" fill="white"/>
<path d="M47.0073 20.7496C47.0073 15.7811 43.7698 14.7476 39.5243 14.7476H31.3207V39.7406H37.5128V28.3138H38.7168C40.155 28.4142 40.7341 29.3577 40.8226 30.9937C40.8447 31.2639 40.8476 31.5814 40.8535 31.9121H40.8461V39.7421H46.9823V31.9121C46.9778 31.0439 46.9587 30.2761 46.9115 29.749C46.8069 28.0097 45.5882 26.415 42.2033 26.2999V26.2349C45.8417 25.5985 47.0073 23.4133 47.0073 20.7467V20.7496ZM38.4323 24.7392H37.5113V18.306C37.5113 18.306 38.0389 18.3148 38.2997 18.3148C40.2758 18.3148 40.8815 19.3248 40.8815 21.6414C40.8815 23.3542 40.2198 24.7392 38.4323 24.7392Z" fill="white"/>
<path d="M79.4688 5.20459L67.1921 11.2967V17.3194L79.4688 11.2303V5.20459Z" fill="#FF0000"/>
</svg>
