<svg width="36" height="36" viewBox="0 0 36 36" fill="none" xmlns="http://www.w3.org/2000/svg">
<path d="M18 27.25C17.9175 27.25 9.76729 27.2411 7.74603 26.6946C7.18783 26.5445 6.67915 26.2499 6.27181 25.8398C5.86447 25.4297 5.57313 24.9186 5.42682 24.3594C4.69318 20.1502 4.69318 15.8457 5.42682 11.6365C5.575 11.0782 5.86683 10.568 6.27388 10.1581C6.68093 9.74831 7.18875 9.45326 7.74603 9.30128C9.77257 8.75791 17.9228 8.75 18 8.75C18.0772 8.75 26.2332 8.75897 28.2545 9.30128C28.8118 9.45326 29.3196 9.74831 29.7267 10.1581C30.1337 10.568 30.4255 11.0782 30.5737 11.6365C31.3067 15.8457 31.3067 20.1501 30.5737 24.3594C30.4274 24.9186 30.1361 25.4297 29.7287 25.8398C29.3214 26.2499 28.8127 26.5445 28.2545 26.6946C26.2332 27.2411 18.0814 27.25 18 27.25ZM15.3117 14.0956V21.9065L22.178 18.0041L15.3117 14.0935V14.0956Z" fill="white"/>
</svg>
