<svg width="36" height="36" viewBox="0 0 36 36" fill="none" xmlns="http://www.w3.org/2000/svg">
<path d="M15.6456 25.1456C15.6456 24.68 15.7837 24.2248 16.0424 23.8376C16.3011 23.4505 16.6688 23.1487 17.099 22.9705C17.5292 22.7923 18.0026 22.7457 18.4593 22.8365C18.916 22.9274 19.3355 23.1516 19.6648 23.4809C19.994 23.8101 20.2183 24.2296 20.3091 24.6863C20.4 25.143 20.3533 25.6164 20.1751 26.0466C19.9969 26.4768 19.6952 26.8445 19.308 27.1032C18.9208 27.3619 18.4656 27.5 18 27.5C17.3756 27.5 16.7767 27.252 16.3352 26.8104C15.8937 26.3689 15.6456 25.7701 15.6456 25.1456ZM15.6456 18C15.6456 17.5344 15.7837 17.0792 16.0424 16.692C16.3011 16.3048 16.6688 16.0031 17.099 15.8249C17.5292 15.6467 18.0026 15.6 18.4593 15.6909C18.916 15.7817 19.3355 16.006 19.6648 16.3352C19.994 16.6645 20.2183 17.084 20.3091 17.5407C20.4 17.9974 20.3533 18.4708 20.1751 18.901C19.9969 19.3312 19.6952 19.6989 19.308 19.9576C18.9208 20.2163 18.4656 20.3544 18 20.3544C17.3756 20.3544 16.7767 20.1063 16.3352 19.6648C15.8937 19.2233 15.6456 18.6244 15.6456 18ZM22.7913 10.8544C22.7913 10.3887 22.9294 9.93352 23.1881 9.54635C23.4468 9.15918 23.8145 8.85741 24.2447 8.67922C24.6749 8.50102 25.1483 8.4544 25.605 8.54524C26.0617 8.63608 26.4812 8.86031 26.8104 9.18958C27.1397 9.51884 27.3639 9.93835 27.4548 10.395C27.5456 10.8517 27.499 11.3251 27.3208 11.7553C27.1426 12.1855 26.8408 12.5532 26.4537 12.8119C26.0665 13.0706 25.6113 13.2087 25.1456 13.2087C24.5212 13.2087 23.9224 12.9607 23.4809 12.5191C23.0393 12.0776 22.7913 11.4788 22.7913 10.8544ZM15.6456 10.8544C15.6459 10.3888 15.7841 9.93367 16.043 9.54664C16.3018 9.15961 16.6696 8.85802 17.0998 8.67999C17.53 8.50196 18.0033 8.45549 18.46 8.54646C18.9166 8.63742 19.336 8.86174 19.6652 9.19105C19.9943 9.52035 20.2184 9.93986 20.3092 10.3965C20.4 10.8532 20.3533 11.3265 20.175 11.7567C19.9968 12.1868 19.695 12.5544 19.3079 12.8131C18.9207 13.0717 18.4656 13.2098 18 13.2098C17.6907 13.2098 17.3845 13.1489 17.0988 13.0305C16.8131 12.9121 16.5535 12.7386 16.3348 12.5198C16.1162 12.3011 15.9428 12.0414 15.8245 11.7557C15.7063 11.4699 15.6455 11.1636 15.6456 10.8544ZM8.5 10.8544C8.50022 10.3888 8.63848 9.93367 8.89731 9.54664C9.15614 9.15961 9.52392 8.85802 9.95414 8.67999C10.3844 8.50196 10.8577 8.45549 11.3143 8.54646C11.771 8.63742 12.1904 8.86174 12.5195 9.19105C12.8487 9.52035 13.0728 9.93986 13.1636 10.3965C13.2543 10.8532 13.2076 11.3265 13.0294 11.7567C12.8512 12.1868 12.5494 12.5544 12.1623 12.8131C11.7751 13.0717 11.32 13.2098 10.8544 13.2098C10.5451 13.2098 10.2388 13.1489 9.95313 13.0305C9.66742 12.9121 9.40783 12.7386 9.18919 12.5198C8.97055 12.3011 8.79716 12.0414 8.6789 11.7557C8.56065 11.4699 8.49986 11.1636 8.5 10.8544Z" fill="white"/>
</svg>
