<svg width="36" height="36" viewBox="0 0 36 36" fill="none" xmlns="http://www.w3.org/2000/svg">
<path d="M22.649 7H13.35C11.6658 7 10.0507 7.669 8.85985 8.85985C7.669 10.0507 7 11.6658 7 13.3499V22.65C7 24.3341 7.669 25.9493 8.85985 27.1401C10.0507 28.331 11.6658 29 13.35 29H22.65C24.3342 29 25.9493 28.331 27.1401 27.1401C28.331 25.9493 29 24.3341 29 22.65V13.3499C29 12.516 28.8357 11.6902 28.5165 10.9197C28.1974 10.1492 27.7295 9.44913 27.1398 8.85947C26.55 8.26981 25.8499 7.8021 25.0793 7.48304C24.3088 7.16399 23.4829 6.99986 22.649 7ZM26.9727 22.8145C26.9727 23.9326 26.5285 25.005 25.7379 25.7956C24.9473 26.5862 23.875 27.0304 22.7569 27.0304H13.2431C12.125 27.0304 11.0527 26.5862 10.2621 25.7956C9.47145 25.005 9.0273 23.9326 9.0273 22.8145V13.2965C9.0273 12.1784 9.47145 11.1061 10.2621 10.3155C11.0527 9.52486 12.125 9.08069 13.2431 9.08069H22.7611C23.8792 9.08069 24.9516 9.52486 25.7422 10.3155C26.5328 11.1061 26.977 12.1784 26.977 13.2965L26.9727 22.8145Z" fill="white"/>
<path d="M17.9995 12.3469C16.8703 12.3469 15.7665 12.6818 14.8277 13.3091C13.8888 13.9364 13.1571 14.828 12.725 15.8712C12.2929 16.9144 12.1798 18.0623 12.4001 19.1698C12.6204 20.2772 13.1641 21.2945 13.9626 22.0929C14.761 22.8914 15.7783 23.4351 16.8857 23.6554C17.9932 23.8757 19.1411 23.7626 20.1843 23.3305C21.2275 22.8984 22.1191 22.1667 22.7464 21.2278C23.3737 20.289 23.7086 19.1852 23.7086 18.056C23.7086 16.5419 23.1071 15.0897 22.0364 14.0191C20.9658 12.9484 19.5136 12.3469 17.9995 12.3469ZM17.9995 21.756C17.2675 21.756 16.552 21.5389 15.9433 21.1322C15.3347 20.7255 14.8603 20.1475 14.5802 19.4713C14.3001 18.795 14.2268 18.0508 14.3696 17.3329C14.5124 16.615 14.8649 15.9555 15.3825 15.4379C15.9001 14.9203 16.5595 14.5678 17.2775 14.425C17.9954 14.2822 18.7395 14.3555 19.4158 14.6356C20.0921 14.9158 20.6701 15.3901 21.0768 15.9988C21.4835 16.6074 21.7005 17.3229 21.7005 18.0549C21.7007 18.541 21.605 19.0223 21.4191 19.4714C21.2331 19.9205 20.9605 20.3286 20.6168 20.6723C20.2731 21.016 19.8651 21.2886 19.416 21.4745C18.9669 21.6605 18.4856 21.7561 17.9995 21.756Z" fill="white"/>
<path d="M23.8976 13.4589C24.632 13.4589 25.2274 12.8636 25.2274 12.1291C25.2274 11.3947 24.632 10.7993 23.8976 10.7993C23.1632 10.7993 22.5678 11.3947 22.5678 12.1291C22.5678 12.8636 23.1632 13.4589 23.8976 13.4589Z" fill="white"/>
</svg>
